<svg width="28" height="28" viewBox="0 0 28 28" fill="none" xmlns="http://www.w3.org/2000/svg">
<path d="M25.6667 12.8333H5.14974L11.3249 6.65818C11.4363 6.55056 11.5252 6.42182 11.5864 6.27949C11.6475 6.13715 11.6797 5.98406 11.681 5.82915C11.6824 5.67424 11.6529 5.52061 11.5942 5.37723C11.5355 5.23385 11.4489 5.10359 11.3394 4.99405C11.2298 4.88451 11.0996 4.79788 10.9562 4.73922C10.8128 4.68056 10.6592 4.65104 10.5043 4.65239C10.3494 4.65373 10.1963 4.68592 10.0539 4.74706C9.9116 4.80821 9.78287 4.89709 9.67524 5.00851L1.50858 13.1752C1.28986 13.394 1.16699 13.6907 1.16699 14C1.16699 14.3094 1.28986 14.6061 1.50858 14.8248L9.67524 22.9915C9.89528 23.204 10.19 23.3216 10.4959 23.319C10.8018 23.3163 11.0944 23.1936 11.3107 22.9773C11.527 22.761 11.6497 22.4684 11.6524 22.1625C11.655 21.8566 11.5374 21.5619 11.3249 21.3418L5.14974 15.1667H25.6667C25.9762 15.1667 26.2729 15.0438 26.4917 14.825C26.7105 14.6062 26.8334 14.3094 26.8334 14C26.8334 13.6906 26.7105 13.3938 26.4917 13.1751C26.2729 12.9563 25.9762 12.8333 25.6667 12.8333Z" fill="black"/>
</svg>
