<svg width="24" height="24" viewBox="0 0 24 24" fill="none" xmlns="http://www.w3.org/2000/svg">
<path d="M3.63654 11.2917C3.44906 11.4792 3.34375 11.7335 3.34375 11.9987C3.34375 12.2638 3.44907 12.5182 3.63654 12.7057L9.29354 18.3627C9.38578 18.4582 9.49613 18.5344 9.61813 18.5868C9.74014 18.6392 9.87136 18.6668 10.0041 18.6679C10.1369 18.6691 10.2686 18.6438 10.3915 18.5935C10.5144 18.5432 10.626 18.469 10.7199 18.3751C10.8138 18.2812 10.8881 18.1695 10.9384 18.0466C10.9886 17.9237 11.0139 17.7921 11.0128 17.6593C11.0116 17.5265 10.984 17.3953 10.9316 17.2733C10.8792 17.1513 10.803 17.0409 10.7075 16.9487L6.75754 12.9987L20.0005 12.9987C20.2658 12.9987 20.5201 12.8933 20.7076 12.7058C20.8952 12.5183 21.0005 12.2639 21.0005 11.9987C21.0005 11.7335 20.8952 11.4791 20.7076 11.2916C20.5201 11.104 20.2658 10.9987 20.0005 10.9987L6.75754 10.9987L10.7075 7.04868C10.8897 6.86008 10.9905 6.60748 10.9882 6.34528C10.9859 6.08308 10.8808 5.83227 10.6954 5.64686C10.5099 5.46145 10.2591 5.35628 9.99694 5.35401C9.73474 5.35173 9.48214 5.45252 9.29354 5.63468L3.63654 11.2917Z" fill="white"/>
</svg>
