<svg width="206" height="40" viewBox="0 0 206 40" fill="none" xmlns="http://www.w3.org/2000/svg">
<g clip-path="url(#clip0_3164_25104)">
<path d="M2.32845 5.74079V7.95134H2.3874C3.17887 6.78986 4.36089 5.95097 5.71852 5.58722C7.07615 5.22348 8.51924 5.35902 9.78539 5.96921C10.1718 6.17521 10.5129 6.45684 10.7882 6.79737C11.0635 7.13789 11.2675 7.53034 11.388 7.95134C11.8716 7.15358 12.5598 6.49973 13.3812 6.05763C14.2193 5.60865 15.1569 5.37804 16.1076 5.38709C16.7994 5.38044 17.4892 5.46341 18.1597 5.63394C18.7319 5.78056 19.2675 6.04398 19.7329 6.40764C20.1789 6.76777 20.5294 7.23213 20.7534 7.75975C21.0127 8.39284 21.1381 9.07272 21.1219 9.75663V20.8094H18.646V10.9356C18.6489 10.4958 18.6106 10.0567 18.5318 9.62399C18.4639 9.24283 18.3143 8.88089 18.0934 8.56293C17.8659 8.25031 17.5595 8.00367 17.2055 7.84818C16.7383 7.65751 16.236 7.56834 15.7318 7.58659C15.2052 7.5576 14.6783 7.63534 14.1825 7.81515C13.6868 7.99496 13.2325 8.27313 12.847 8.63293C12.4914 9.00401 12.2152 9.44369 12.0353 9.92512C11.8554 10.4066 11.7756 10.9196 11.8007 11.433V20.8094H9.32118V10.9356C9.32473 10.4851 9.28027 10.0356 9.18854 9.59452C9.11068 9.21386 8.95652 8.85292 8.73538 8.53345C8.51731 8.22724 8.22077 7.98544 7.87695 7.83344C7.4393 7.65352 6.96822 7.56935 6.49535 7.58659C5.8536 7.56975 5.21858 7.72088 4.65322 8.02502C3.73619 8.52529 3.03961 9.35067 2.70056 10.3387C2.56952 10.6932 2.49614 11.0663 2.48319 11.444V20.8205H0V5.74079H2.32845Z" fill="#284797"/>
<path d="M35.6264 21.1186C35.0658 21.147 34.5166 20.9538 34.0974 20.5807C33.7167 20.2196 33.5276 19.6326 33.53 18.8196C32.9002 19.5973 32.0841 20.203 31.1574 20.5807C30.2183 20.9467 29.2178 21.1293 28.2099 21.1186C27.5625 21.1235 26.9168 21.0505 26.2868 20.9012C25.7133 20.7648 25.1732 20.5142 24.6988 20.1644C24.2401 19.8199 23.8711 19.37 23.623 18.8528C23.3456 18.2453 23.2108 17.5824 23.2288 16.9148C23.2011 16.1895 23.3516 15.4685 23.6673 14.8148C23.9425 14.2907 24.3361 13.8378 24.8167 13.4922C25.3129 13.1435 25.8649 12.8819 26.4489 12.7185C27.0605 12.5453 27.6868 12.3979 28.3278 12.2837C28.9689 12.1695 29.6542 12.0442 30.2621 11.9779C30.8077 11.9212 31.3483 11.8239 31.8795 11.6869C32.2848 11.5882 32.6626 11.3993 32.9847 11.1342C33.1262 10.9971 33.236 10.8308 33.3066 10.647C33.3773 10.4631 33.407 10.266 33.3937 10.0695C33.4143 9.61248 33.3085 9.15864 33.0879 8.75789C32.8967 8.44069 32.6246 8.18002 32.2995 8.00261C31.9698 7.82734 31.6119 7.71137 31.2421 7.65998C30.8506 7.60166 30.4553 7.57211 30.0594 7.57156C29.1492 7.53892 28.2462 7.74466 27.4399 8.16841C26.7399 8.56631 26.3604 9.31913 26.3015 10.4269H23.8257C23.8361 9.60617 24.0366 8.79905 24.4115 8.06893C24.7442 7.44327 25.2232 6.90734 25.8078 6.5068C26.4178 6.0981 27.0988 5.80697 27.8157 5.64838C28.6004 5.4717 29.4025 5.38395 30.2068 5.38679C30.8836 5.3867 31.5595 5.43473 32.2295 5.53048C32.867 5.61886 33.4834 5.82102 34.0495 6.12732C34.5915 6.42746 35.0441 6.86609 35.3611 7.3984C35.7169 8.04853 35.8877 8.78379 35.8548 9.52421V17.2612C35.8423 17.691 35.8769 18.1209 35.9579 18.5433C36.0279 18.8122 36.2564 18.9486 36.6432 18.9486C36.9009 18.9404 37.1558 18.8919 37.3985 18.8049V20.7244C36.8497 21.0026 36.2368 21.1297 35.6227 21.0928M32.1558 13.5069C31.651 13.6137 31.1242 13.6985 30.5716 13.7685C30.0189 13.8385 29.4663 13.9158 28.8952 14.0006C28.3744 14.0763 27.8655 14.2187 27.381 14.4243C26.9486 14.603 26.5683 14.8881 26.2757 15.2532C25.9742 15.6834 25.8263 16.2025 25.8557 16.7269C25.8432 17.088 25.9285 17.4457 26.1026 17.7622C26.2613 18.0365 26.4805 18.2708 26.7436 18.4475C27.0285 18.6275 27.3447 18.7525 27.6757 18.8159C28.039 18.8937 28.4095 18.932 28.781 18.9301C29.4944 18.9479 30.205 18.8342 30.8773 18.5949C31.4035 18.4078 31.8888 18.1214 32.3068 17.7512C32.6519 17.4431 32.9292 17.0668 33.1211 16.6459C33.2857 16.2937 33.3748 15.9109 33.3826 15.5222V12.9874C33.0176 13.2462 32.6 13.421 32.1595 13.4995" fill="#284797"/>
<path d="M41.3966 5.73961V8.127H41.4519C42.4834 6.30452 44.1143 5.39205 46.3446 5.3896C47.1897 5.36452 48.0317 5.50341 48.8241 5.79856C49.4419 6.04023 49.9909 6.42988 50.423 6.9333C50.8401 7.43631 51.1351 8.02895 51.2851 8.66491C51.4538 9.38954 51.5366 10.1315 51.532 10.8755V20.7787H49.0562V10.6065C49.0765 10.2022 49.0148 9.79794 48.8749 9.41805C48.735 9.03817 48.5197 8.6905 48.2419 8.39595C47.9421 8.11603 47.5888 7.89961 47.2032 7.75969C46.8177 7.61977 46.4078 7.55924 45.9982 7.58174C45.3244 7.57238 44.6556 7.69763 44.0308 7.95016C43.4993 8.16828 43.0262 8.50767 42.6492 8.94123C42.2723 9.37901 41.9889 9.8893 41.8166 10.4407C41.6269 11.0487 41.5336 11.6828 41.5403 12.3197V20.823H39.0645V5.73961H41.3966Z" fill="#284797"/>
<path d="M54.5273 0H56.9995V3.02846H54.5273V0ZM56.9995 20.7976H54.5273V5.74008H56.9995V20.7976Z" fill="#284797"/>
<path d="M62.5254 5.73863V7.77603H62.5807C62.9775 6.95449 63.6617 6.30695 64.5039 5.956C65.4158 5.56932 66.3981 5.37612 67.3886 5.38862C68.439 5.36373 69.4808 5.58318 70.4318 6.02968C71.2711 6.43785 72.0077 7.02968 72.5871 7.76129C73.1728 8.51308 73.6126 9.36779 73.884 10.2813C74.1786 11.2636 74.3251 12.2843 74.3187 13.3098C74.3251 14.3342 74.1837 15.3542 73.8987 16.3382C73.6402 17.2461 73.2044 18.0938 72.6166 18.8325C72.0363 19.5483 71.2988 20.1207 70.4613 20.5051C69.5147 20.9306 68.4851 21.1395 67.4476 21.1167C67.0325 21.1133 66.6184 21.0751 66.2097 21.0025C65.7468 20.924 65.2928 20.8007 64.8539 20.6341C64.4008 20.4547 63.9744 20.2142 63.5865 19.9193C63.1844 19.6178 62.8431 19.2428 62.5807 18.8141H62.5254V26.551H60.0459V5.73863H62.5254ZM71.4229 11.0845C71.2503 10.4404 70.9633 9.83268 70.5755 9.29025C70.1962 8.76456 69.6974 8.3365 69.1202 8.04129C68.4754 7.71659 67.7604 7.55587 67.0386 7.57339C66.3429 7.5464 65.6517 7.69654 65.0298 8.00972C64.408 8.3229 63.8758 8.78887 63.4833 9.36394C63.109 9.91731 62.8381 10.534 62.6838 11.184C62.3447 12.5672 62.3447 14.0119 62.6838 15.3951C62.8424 16.0488 63.1237 16.6664 63.5128 17.2151C63.8996 17.7457 64.404 18.1795 64.9865 18.4825C65.6641 18.8198 66.4146 18.9843 67.1713 18.9614C67.9156 18.9864 68.6536 18.8162 69.3118 18.4677C69.8713 18.1483 70.3453 17.6983 70.6934 17.1561C71.0544 16.5844 71.3113 15.9532 71.4524 15.2919C71.608 14.5841 71.6858 13.8614 71.6845 13.1366C71.6852 12.4433 71.5922 11.753 71.4082 11.0845" fill="#284797"/>
<path d="M88.0017 21.1181C87.4412 21.147 86.8918 20.9537 86.4728 20.5802C86.0921 20.2192 85.9029 19.6321 85.9054 18.8192C85.2735 19.5961 84.4563 20.2017 83.5291 20.5802C82.5969 20.9436 81.6042 21.1261 80.6038 21.1181C79.9563 21.1233 79.3106 21.0503 78.6806 20.9008C78.1068 20.7652 77.5666 20.5145 77.0927 20.1639C76.6339 19.8195 76.2649 19.3696 76.0168 18.8523C75.7394 18.2448 75.6046 17.582 75.6226 16.9144C75.5939 16.1894 75.7432 15.4684 76.0574 14.8144C76.3341 14.2901 76.7288 13.8372 77.2105 13.4917C77.7054 13.1431 78.2561 12.8815 78.839 12.718C79.4506 12.5449 80.0769 12.3975 80.718 12.2833C81.359 12.1691 82.0443 12.0438 82.6559 11.9775C83.2014 11.92 83.742 11.8227 84.2733 11.6864C84.6788 11.5884 85.0568 11.3994 85.3785 11.1338C85.52 10.9967 85.6298 10.8304 85.7004 10.6465C85.7711 10.4626 85.8008 10.2656 85.7875 10.069C85.8081 9.61203 85.7023 9.15819 85.4817 8.75744C85.2928 8.43971 85.0217 8.17879 84.697 8.00216C84.361 7.8217 83.9954 7.70316 83.6175 7.65216C83.2272 7.59383 82.8331 7.56427 82.4385 7.56373C81.5271 7.53114 80.6229 7.73686 79.8153 8.16058C79.1202 8.55848 78.742 9.3113 78.6806 10.419H76.19C76.1992 9.59864 76.3985 8.79155 76.7721 8.06111C77.1067 7.43563 77.5869 6.89984 78.1721 6.49899C78.7821 6.09029 79.4631 5.79914 80.1801 5.64055C80.9635 5.46391 81.7644 5.37616 82.5675 5.37897C83.2455 5.37876 83.9226 5.42679 84.5938 5.52266C85.2312 5.61159 85.8476 5.81372 86.4138 6.11951C86.9551 6.42064 87.4075 6.85903 87.7254 7.39057C88.0813 8.04071 88.252 8.77598 88.2191 9.5164V17.2533C88.2047 17.6832 88.2393 18.1134 88.3223 18.5355C88.3886 18.8044 88.617 18.9407 89.0075 18.9407C89.2653 18.9326 89.5201 18.8841 89.7628 18.797V20.7165C89.2139 20.9944 88.6011 21.1216 87.987 21.085M84.5201 13.4991C84.0154 13.6059 83.4848 13.6907 82.9322 13.7607C82.3796 13.8307 81.8269 13.908 81.2595 13.9928C80.7387 14.0685 80.2298 14.2109 79.7453 14.4165C79.3117 14.5931 78.9311 14.8787 78.64 15.2454C78.3357 15.6743 78.1863 16.194 78.2163 16.7191C78.2056 17.08 78.2908 17.4372 78.4632 17.7544C78.6219 18.0286 78.8412 18.263 79.1043 18.4397C79.3898 18.6184 79.7058 18.7433 80.0364 18.8081C80.3997 18.8855 80.7702 18.9238 81.1416 18.9223C81.8551 18.9398 82.5656 18.8261 83.238 18.587C83.7635 18.3986 84.2485 18.1123 84.6675 17.7433C85.0125 17.4353 85.2898 17.0589 85.4817 16.6381C85.6447 16.2853 85.7337 15.9029 85.7433 15.5144V12.9796C85.3783 13.2384 84.9606 13.4132 84.5201 13.4917" fill="#284797"/>
<path d="M94.0295 0H91.5537V20.7976H94.0295V0Z" fill="#284797"/>
<path d="M99.508 0.00390625V7.95453H99.567C99.7496 7.50615 100.029 7.1036 100.385 6.77558C100.734 6.45447 101.131 6.18859 101.56 5.98714C101.999 5.78511 102.458 5.63311 102.931 5.53398C103.387 5.44016 103.851 5.39202 104.316 5.39029C105.16 5.36485 106.001 5.50375 106.792 5.79925C107.41 6.04146 107.961 6.43097 108.394 6.934C108.809 7.43815 109.103 8.03047 109.253 8.6656C109.423 9.38993 109.506 10.1321 109.5 10.8762V20.7794H107.024V10.6072C107.044 10.2029 106.983 9.79863 106.843 9.41875C106.703 9.03886 106.487 8.69119 106.21 8.39665C105.91 8.11673 105.557 7.9003 105.171 7.76038C104.785 7.62046 104.376 7.55993 103.966 7.58243C103.293 7.57267 102.626 7.69795 102.002 7.95086C101.469 8.1675 100.994 8.50708 100.617 8.94192C100.242 9.38105 99.9589 9.89093 99.7844 10.4414C99.5946 11.0494 99.5014 11.6835 99.508 12.3204V20.8237H97.0322V0.00390625H99.508Z" fill="#05ABA5"/>
<path d="M112.083 10.184C112.369 9.26116 112.845 8.40802 113.479 7.67868C114.115 6.95858 114.901 6.38641 115.782 6.00234C117.804 5.18672 120.063 5.18672 122.085 6.00234C122.96 6.38959 123.74 6.96144 124.373 7.67868C125.007 8.40874 125.484 9.26157 125.773 10.184C126.089 11.1874 126.246 12.2342 126.238 13.2861C126.246 14.3333 126.09 15.3752 125.773 16.3735C125.48 17.29 125.004 18.1374 124.373 18.8641C123.742 19.578 122.96 20.1441 122.085 20.522C120.059 21.3178 117.807 21.3178 115.782 20.522C114.9 20.1472 114.114 19.5809 113.479 18.8641C112.848 18.1381 112.373 17.2905 112.083 16.3735C111.763 15.3759 111.605 14.3336 111.615 13.2861C111.606 12.2338 111.764 11.1868 112.083 10.184ZM114.603 15.7104C114.812 16.3644 115.153 16.9688 115.605 17.4862C116.02 17.9594 116.533 18.3366 117.108 18.5915C117.682 18.8418 118.302 18.971 118.928 18.971C119.554 18.971 120.174 18.8418 120.748 18.5915C121.322 18.3355 121.833 17.9585 122.247 17.4862C122.699 16.9681 123.041 16.364 123.253 15.7104C123.735 14.1238 123.735 12.4301 123.253 10.8435C123.037 10.1888 122.694 9.58293 122.244 9.06027C121.832 8.58562 121.32 8.20815 120.744 7.955C120.17 7.70467 119.551 7.57547 118.924 7.57547C118.298 7.57547 117.678 7.70467 117.104 7.955C116.527 8.20715 116.014 8.58473 115.601 9.06027C115.152 9.58473 114.811 10.1934 114.599 10.8508C114.113 12.4367 114.113 14.1319 114.599 15.7177" fill="#05ABA5"/>
<path d="M130.327 17.4339C130.551 17.8074 130.867 18.118 131.244 18.3365C131.641 18.5664 132.073 18.7294 132.522 18.8191C133.008 18.9156 133.501 18.9637 133.996 18.9628C134.405 18.9613 134.814 18.9317 135.219 18.8744C135.625 18.8245 136.022 18.7179 136.398 18.5575C136.749 18.4104 137.055 18.1742 137.286 17.8723C137.53 17.5402 137.654 17.1346 137.636 16.7228C137.652 16.4342 137.593 16.1464 137.464 15.8879C137.334 15.6294 137.14 15.4092 136.899 15.2491C136.338 14.886 135.723 14.616 135.076 14.4496C134.339 14.247 133.558 14.0591 132.703 13.897C131.891 13.744 131.096 13.5094 130.33 13.197C129.635 12.919 129.012 12.4855 128.51 11.9296C127.989 11.2908 127.726 10.4796 127.773 9.65639C127.754 8.97163 127.931 8.29561 128.282 7.70741C128.613 7.17203 129.062 6.71859 129.593 6.38108C130.15 6.03242 130.76 5.77613 131.399 5.62212C132.052 5.46082 132.722 5.37795 133.396 5.37527C134.188 5.36998 134.979 5.44279 135.757 5.59265C136.434 5.72325 137.081 5.98077 137.662 6.35161C138.221 6.71596 138.677 7.21685 138.988 7.80688C139.345 8.51869 139.543 9.29914 139.57 10.0948H137.095C137.076 9.66724 136.95 9.25136 136.726 8.88637C136.518 8.5695 136.239 8.3048 135.912 8.11268C135.568 7.91478 135.195 7.77299 134.807 7.69267C134.41 7.60415 134.005 7.55968 133.598 7.56004C133.228 7.56136 132.859 7.59092 132.493 7.64846C132.135 7.69963 131.786 7.80264 131.458 7.95425C131.171 8.08918 130.918 8.28837 130.721 8.53637C130.517 8.80895 130.415 9.14348 130.43 9.48323C130.425 9.68192 130.462 9.87941 130.54 10.0624C130.617 10.2454 130.733 10.4097 130.879 10.5443C131.215 10.848 131.605 11.0855 132.029 11.2443C132.54 11.4411 133.066 11.5975 133.602 11.7122C134.188 11.8375 134.77 11.9701 135.352 12.1027C135.967 12.2377 136.574 12.4037 137.172 12.6001C137.732 12.777 138.262 13.0365 138.745 13.3701C139.198 13.6871 139.575 14.0997 139.85 14.5786C140.15 15.1331 140.296 15.7576 140.274 16.3875C140.305 17.1826 140.108 17.9699 139.707 18.657C139.34 19.2587 138.835 19.764 138.233 20.1307C137.595 20.5094 136.893 20.7702 136.162 20.9007C135.41 21.0456 134.645 21.1183 133.878 21.1181C133.074 21.1228 132.271 21.035 131.487 20.8565C130.77 20.6993 130.089 20.408 129.479 19.9981C128.892 19.5953 128.411 19.0554 128.079 18.4249C127.711 17.6874 127.512 16.8767 127.497 16.0523H129.973C129.974 16.537 130.101 17.0132 130.341 17.4339" fill="#05ABA5"/>
<path d="M144.824 5.73869V7.77609H144.883C145.277 6.95205 145.962 6.30345 146.807 5.95606C147.717 5.56978 148.698 5.37658 149.688 5.38868C150.738 5.36338 151.78 5.58285 152.731 6.02974C153.571 6.43684 154.308 7.02884 154.886 7.76135C155.472 8.51314 155.912 9.36785 156.183 10.2814C156.479 11.2635 156.627 12.2842 156.621 13.3098C156.627 14.3345 156.484 15.3545 156.198 16.3383C155.941 17.2468 155.505 18.0948 154.916 18.8325C154.335 19.5483 153.598 20.1207 152.76 20.5052C151.814 20.9311 150.784 21.1401 149.747 21.1168C149.332 21.1132 148.917 21.075 148.509 21.0026C148.047 20.9246 147.594 20.8012 147.157 20.6341C146.702 20.4556 146.274 20.2151 145.886 19.9194C145.484 19.6187 145.143 19.2435 144.883 18.8141H144.824V26.5511H142.349V5.73869H144.824ZM153.722 11.0845C153.551 10.4407 153.265 9.83292 152.878 9.29031C152.492 8.76354 151.987 8.33556 151.405 8.04135C150.76 7.71621 150.045 7.55547 149.323 7.57345C148.628 7.5457 147.937 7.69553 147.315 8.0088C146.694 8.32208 146.163 8.78847 145.771 9.364C145.394 9.91641 145.122 10.5333 144.968 11.184C144.805 11.8622 144.722 12.5571 144.721 13.2546C144.72 13.9761 144.808 14.6951 144.983 15.3951C145.143 16.049 145.425 16.6667 145.816 17.2152C146.201 17.7469 146.706 18.181 147.289 18.4825C147.967 18.8199 148.717 18.9844 149.474 18.9615C150.218 18.9869 150.956 18.8167 151.615 18.4678C152.175 18.1494 152.649 17.6992 152.996 17.1562C153.359 16.5852 153.616 15.9538 153.755 15.292C153.911 14.5841 153.989 13.8614 153.987 13.1367C153.988 12.4433 153.895 11.753 153.711 11.0845" fill="#05ABA5"/>
<path d="M158.905 0H161.377V3.02846H158.905V0ZM161.377 20.7976H158.905V5.74008H161.377V20.7976Z" fill="#05ABA5"/>
<path d="M170.876 5.73956V7.92432H167.873V17.275C167.861 17.5097 167.88 17.7451 167.928 17.975C167.968 18.1401 168.067 18.2852 168.205 18.3839C168.374 18.495 168.57 18.5598 168.772 18.5718C169.088 18.6049 169.405 18.6197 169.723 18.616H170.876V20.8008H168.982C168.43 20.8093 167.879 20.7661 167.335 20.6719C166.932 20.6084 166.551 20.4422 166.23 20.1892C165.927 19.9284 165.709 19.5834 165.604 19.1982C165.45 18.6493 165.381 18.0804 165.397 17.5108V7.93169H162.818V5.74693H165.397V1.22266H167.873V5.73956H170.876Z" fill="#05ABA5"/>
<path d="M184.478 21.1186C183.918 21.1474 183.368 20.9542 182.949 20.5807C182.571 20.2196 182.382 19.6326 182.382 18.8196C181.75 19.5966 180.933 20.2022 180.006 20.5807C179.073 20.944 178.081 21.1266 177.08 21.1186C176.433 21.1237 175.787 21.0507 175.157 20.9012C174.583 20.7656 174.043 20.5149 173.569 20.1643C173.11 19.8209 172.74 19.3707 172.493 18.8528C172.214 18.2458 172.079 17.5826 172.099 16.9148C172.07 16.1898 172.22 15.4688 172.534 14.8148C172.811 14.2905 173.205 13.8377 173.687 13.4921C174.182 13.1435 174.733 12.8819 175.316 12.7185C175.927 12.5453 176.553 12.3979 177.195 12.2837C177.836 12.1695 178.521 12.0442 179.132 11.9779C179.678 11.9208 180.219 11.8235 180.75 11.6869C181.155 11.588 181.533 11.3991 181.855 11.1342C181.997 10.9971 182.106 10.8308 182.177 10.6469C182.248 10.4631 182.277 10.266 182.264 10.0695C182.285 9.61248 182.179 9.15863 181.958 8.75788C181.768 8.43989 181.496 8.17899 181.17 8.0026C180.832 7.82392 180.465 7.70783 180.087 7.65997C179.696 7.60164 179.302 7.57209 178.908 7.57155C177.996 7.53895 177.092 7.74467 176.285 8.1684C175.584 8.5663 175.209 9.31789 175.15 10.4269H172.681C172.691 9.60646 172.89 8.79935 173.263 8.06892C173.598 7.44343 174.078 6.90765 174.663 6.5068C175.273 6.09809 175.954 5.80696 176.671 5.64837C177.455 5.47188 178.256 5.38412 179.059 5.38678C179.737 5.38657 180.414 5.43459 181.085 5.53047C181.722 5.6194 182.339 5.82152 182.905 6.12732C183.446 6.42845 183.899 6.86685 184.217 7.39839C184.573 8.04852 184.743 8.78379 184.71 9.5242V17.2611C184.696 17.6911 184.731 18.1212 184.814 18.5433C184.88 18.8122 185.108 18.9485 185.495 18.9485C185.754 18.9408 186.01 18.8923 186.254 18.8049V20.7244C185.705 21.0017 185.092 21.1288 184.478 21.0928M181.011 13.5069C180.507 13.6137 179.976 13.6985 179.423 13.7685C178.871 13.8385 178.318 13.9158 177.747 14.0006C177.226 14.0763 176.717 14.2187 176.233 14.4243C175.8 14.6014 175.419 14.8868 175.128 15.2532C174.823 15.6821 174.674 16.2018 174.704 16.7269C174.693 17.0878 174.778 17.445 174.951 17.7622C175.11 18.0365 175.329 18.2708 175.592 18.4475C175.877 18.6262 176.193 18.7511 176.524 18.8159C176.887 18.8933 177.258 18.9316 177.629 18.9301C178.343 18.9476 179.053 18.8339 179.726 18.5948C180.251 18.4064 180.736 18.1201 181.155 17.7512C181.499 17.4421 181.776 17.066 181.969 16.6459C182.132 16.2931 182.221 15.9107 182.231 15.5222V12.9874C181.866 13.2462 181.448 13.421 181.008 13.4995" fill="#05ABA5"/>
<path d="M190.505 0H188.029V20.7976H190.505V0Z" fill="#05ABA5"/>
<path d="M195.561 17.4343C195.785 17.811 196.102 18.1242 196.482 18.3443C196.879 18.5754 197.313 18.7385 197.764 18.8269C198.249 18.9238 198.743 18.972 199.238 18.9706C199.647 18.9691 200.056 18.9395 200.461 18.8822C200.867 18.8323 201.264 18.7257 201.64 18.5654C201.99 18.4182 202.296 18.182 202.528 17.8801C202.776 17.5492 202.906 17.1443 202.896 16.7306C202.913 16.442 202.853 16.154 202.724 15.8955C202.595 15.6369 202.4 15.4167 202.159 15.2569C201.6 14.8938 200.985 14.6238 200.339 14.4574C199.602 14.2548 198.821 14.0669 197.967 13.9048C197.154 13.7523 196.359 13.5177 195.594 13.2048C194.898 12.9278 194.275 12.4941 193.774 11.9374C193.252 11.2986 192.989 10.4874 193.037 9.66419C193.018 8.97943 193.194 8.30341 193.545 7.71521C193.876 7.17903 194.325 6.72539 194.857 6.38888C195.414 6.03958 196.023 5.78325 196.662 5.62992C197.316 5.46863 197.986 5.38577 198.659 5.38308C199.45 5.37777 200.24 5.45058 201.017 5.60045C201.696 5.73035 202.343 5.9879 202.926 6.35941C203.483 6.72487 203.94 7.2255 204.252 7.8147C204.607 8.52707 204.805 9.30718 204.834 10.1026H202.358C202.344 9.69805 202.227 9.30379 202.018 8.957C201.809 8.61021 201.515 8.32233 201.165 8.12049C200.821 7.92258 200.448 7.7808 200.059 7.70047C199.662 7.61211 199.257 7.56763 198.851 7.56785C198.481 7.56904 198.111 7.59859 197.745 7.65627C197.387 7.70744 197.039 7.81045 196.71 7.96207C196.416 8.09363 196.157 8.29312 195.955 8.54417C195.75 8.81627 195.646 9.15084 195.66 9.49103C195.655 9.69007 195.693 9.88789 195.771 10.071C195.849 10.2541 195.966 10.4182 196.113 10.5521C196.449 10.8558 196.839 11.0933 197.263 11.2521C197.774 11.4489 198.3 11.6053 198.836 11.72C199.418 11.8453 200 11.9779 200.586 12.1105C201.201 12.2455 201.808 12.4115 202.406 12.6079C202.965 12.7842 203.494 13.0438 203.976 13.3779C204.428 13.6952 204.805 14.1077 205.081 14.5864C205.38 15.1409 205.527 15.7654 205.505 16.3953C205.534 17.1908 205.336 17.9781 204.933 18.6648C204.568 19.2671 204.062 19.7726 203.46 20.1385C202.823 20.5172 202.123 20.778 201.393 20.9085C200.639 21.0535 199.873 21.1263 199.105 21.1259C198.302 21.1304 197.501 21.0426 196.718 20.8643C195.999 20.7071 195.317 20.4159 194.706 20.0059C194.119 19.6029 193.64 19.0629 193.31 18.4327C192.939 17.6959 192.74 16.8847 192.728 16.0601H195.192C195.191 16.545 195.318 17.0217 195.561 17.4417" fill="#05ABA5"/>
<path d="M142.378 31.3242H143.41V38.1954H147.506V39.0648H142.378V31.3242Z" fill="#284797"/>
<path d="M149.474 31.3242H148.446V39.0648H149.474V31.3242Z" fill="#284797"/>
<path d="M151.209 31.3242H156.29V32.19H152.233V34.6511H155.792V35.5206H152.233V39.0648H151.209V31.3242Z" fill="#284797"/>
<path d="M157.429 31.3242H162.767V32.19H158.457V34.6511H162.476V35.5206H158.457V38.1954H162.8V39.0648H157.429V31.3242Z" fill="#284797"/>
<path d="M164.097 31.3242H165.301V32.529C165.301 33.3837 164.933 34.1242 164.111 34.1242V33.5827C164.598 33.5827 164.738 33.03 164.738 32.529H164.097V31.3242Z" fill="#284797"/>
<path d="M171.532 33.5946C171.41 32.4893 170.673 32.0103 169.612 32.0103C168.746 32.0103 167.877 32.3272 167.877 33.333C167.877 34.3388 169.115 34.4383 170.364 34.7109C171.613 34.9835 172.832 35.4256 172.832 36.9436C172.832 38.5904 171.218 39.2499 169.807 39.2499C168.076 39.2499 166.609 38.4025 166.609 36.5162H167.586C167.586 37.8167 168.673 38.3841 169.84 38.3841C170.773 38.3841 171.804 38.093 171.804 36.9767C171.804 35.8604 170.566 35.7278 169.332 35.4551C168.098 35.1825 166.849 34.8288 166.849 33.4067C166.849 31.8372 168.249 31.1445 169.656 31.1445C171.24 31.1445 172.442 31.8814 172.504 33.5946H171.532Z" fill="#284797"/>
<path d="M180.359 31.1445C182.82 31.1445 184.065 33.0935 184.065 35.1972C184.065 37.3009 182.82 39.2499 180.359 39.2499C177.898 39.2499 176.652 37.2972 176.652 35.1972C176.652 33.0972 177.898 31.1445 180.359 31.1445ZM180.359 38.3841C182.249 38.3841 183.037 36.7557 183.037 35.1972C183.037 33.6388 182.249 32.0103 180.359 32.0103C178.469 32.0103 177.684 33.6388 177.684 35.1972C177.684 36.7557 178.472 38.3841 180.359 38.3841Z" fill="#284797"/>
<path d="M185.311 31.3242H186.405L190.48 37.5985H190.505V31.3242H191.478V39.0648H190.351L186.309 32.8532H186.287V39.0648H185.311V31.3242Z" fill="#284797"/>
<path d="M204.878 30.3887H195.266V40.0009H204.878V30.3887Z" fill="#C61C1A"/>
<path d="M199.363 31.7401C199.278 31.7336 199.193 31.7446 199.113 31.7724C199.033 31.8003 198.96 31.8444 198.898 31.902C198.835 31.9596 198.786 32.0294 198.752 32.1071C198.718 32.1849 198.7 32.2687 198.7 32.3536C198.7 32.4384 198.718 32.5223 198.752 32.6C198.786 32.6777 198.835 32.7475 198.898 32.8051C198.96 32.8627 199.033 32.9068 199.113 32.9347C199.193 32.9626 199.278 32.9735 199.363 32.967C199.518 32.955 199.662 32.8852 199.767 32.7715C199.872 32.6577 199.931 32.5085 199.931 32.3536C199.931 32.1986 199.872 32.0494 199.767 31.9357C199.662 31.8219 199.518 31.7521 199.363 31.7401Z" fill="white"/>
<path d="M200.803 31.7402C200.681 31.7395 200.561 31.775 200.46 31.8421C200.358 31.9093 200.279 32.0051 200.231 32.1175C200.184 32.2299 200.172 32.3537 200.195 32.4733C200.218 32.5929 200.277 32.7028 200.362 32.7893C200.448 32.8757 200.558 32.9346 200.677 32.9587C200.797 32.9827 200.921 32.9708 201.033 32.9243C201.146 32.8778 201.242 32.799 201.31 32.6977C201.378 32.5965 201.414 32.4774 201.414 32.3555C201.413 32.1933 201.349 32.0379 201.234 31.9228C201.12 31.8077 200.965 31.7422 200.803 31.7402Z" fill="white"/>
<path d="M199.363 33.162C199.278 33.1554 199.193 33.1664 199.113 33.1943C199.033 33.2221 198.96 33.2663 198.898 33.3239C198.835 33.3815 198.786 33.4513 198.752 33.529C198.718 33.6067 198.7 33.6906 198.7 33.7754C198.7 33.8602 198.718 33.9441 198.752 34.0218C198.786 34.0995 198.835 34.1694 198.898 34.227C198.96 34.2846 199.033 34.3287 199.113 34.3566C199.193 34.3844 199.278 34.3954 199.363 34.3889C199.518 34.3769 199.662 34.307 199.767 34.1933C199.872 34.0796 199.931 33.9304 199.931 33.7754C199.931 33.6205 199.872 33.4712 199.767 33.3575C199.662 33.2438 199.518 33.174 199.363 33.162Z" fill="white"/>
<path d="M200.803 33.1621C200.681 33.1614 200.561 33.197 200.459 33.2643C200.358 33.3316 200.278 33.4277 200.231 33.5402C200.184 33.6528 200.172 33.7768 200.195 33.8965C200.219 34.0162 200.278 34.1262 200.364 34.2124C200.45 34.2987 200.56 34.3574 200.68 34.381C200.799 34.4046 200.923 34.3921 201.036 34.3451C201.149 34.2981 201.245 34.2187 201.312 34.1169C201.379 34.0152 201.415 33.8957 201.414 33.7737C201.413 33.6118 201.348 33.4568 201.234 33.3423C201.119 33.2278 200.964 33.1631 200.803 33.1621Z" fill="white"/>
<path d="M199.363 34.58C199.278 34.5734 199.193 34.5844 199.113 34.6123C199.033 34.6401 198.96 34.6842 198.898 34.7418C198.835 34.7994 198.786 34.8693 198.752 34.947C198.718 35.0247 198.7 35.1086 198.7 35.1934C198.7 35.2782 198.718 35.3621 198.752 35.4398C198.786 35.5175 198.835 35.5874 198.898 35.645C198.96 35.7026 199.033 35.7467 199.113 35.7745C199.193 35.8024 199.278 35.8134 199.363 35.8068C199.443 35.8073 199.523 35.7918 199.597 35.7612C199.671 35.7306 199.739 35.6855 199.795 35.6286C199.852 35.5716 199.897 35.504 199.927 35.4296C199.957 35.3552 199.972 35.2755 199.971 35.1952C199.971 35.1149 199.956 35.0353 199.926 34.9609C199.896 34.8865 199.851 34.8188 199.794 34.7617C199.738 34.7046 199.671 34.6591 199.597 34.6279C199.523 34.5967 199.443 34.5804 199.363 34.58Z" fill="white"/>
<path d="M197.94 34.5801C197.818 34.5794 197.699 34.6148 197.597 34.682C197.496 34.7491 197.416 34.845 197.369 34.9573C197.322 35.0697 197.309 35.1935 197.333 35.3131C197.356 35.4327 197.414 35.5427 197.5 35.6291C197.586 35.7155 197.696 35.7745 197.815 35.7985C197.935 35.8226 198.059 35.8106 198.171 35.7641C198.284 35.7177 198.38 35.6388 198.448 35.5376C198.516 35.4363 198.552 35.3172 198.552 35.1954C198.552 35.0328 198.488 34.8769 198.373 34.7616C198.258 34.6463 198.103 34.5811 197.94 34.5801Z" fill="white"/>
<path d="M196.518 34.582C196.396 34.5828 196.278 34.6195 196.177 34.6875C196.076 34.7556 195.998 34.8519 195.952 34.9644C195.906 35.0769 195.894 35.2005 195.919 35.3196C195.943 35.4387 196.002 35.548 196.088 35.6336C196.174 35.7193 196.284 35.7776 196.403 35.801C196.522 35.8244 196.646 35.812 196.758 35.7654C196.87 35.7187 196.966 35.6398 197.033 35.5387C197.101 35.4376 197.137 35.3188 197.137 35.1973C197.135 35.0341 197.069 34.8781 196.953 34.7631C196.837 34.648 196.681 34.583 196.518 34.582Z" fill="white"/>
<path d="M203.622 34.5801C203.5 34.5794 203.381 34.6148 203.279 34.682C203.177 34.7491 203.098 34.845 203.051 34.9573C203.004 35.0697 202.991 35.1935 203.014 35.3131C203.038 35.4327 203.096 35.5427 203.182 35.6291C203.268 35.7155 203.377 35.7745 203.497 35.7985C203.616 35.8226 203.74 35.8106 203.853 35.7641C203.965 35.7177 204.062 35.6388 204.13 35.5376C204.197 35.4363 204.233 35.3172 204.233 35.1954C204.233 35.0328 204.169 34.8769 204.055 34.7616C203.94 34.6463 203.784 34.5811 203.622 34.5801Z" fill="white"/>
<path d="M202.192 34.5801C202.07 34.5794 201.951 34.6148 201.849 34.682C201.748 34.7491 201.668 34.845 201.621 34.9573C201.574 35.0697 201.561 35.1935 201.585 35.3131C201.608 35.4327 201.666 35.5427 201.752 35.6291C201.838 35.7155 201.948 35.7745 202.067 35.7985C202.187 35.8226 202.31 35.8106 202.423 35.7641C202.536 35.7177 202.632 35.6388 202.7 35.5376C202.768 35.4363 202.804 35.3172 202.804 35.1954C202.803 35.0331 202.738 34.8777 202.624 34.7626C202.509 34.6476 202.354 34.582 202.192 34.5801Z" fill="white"/>
<path d="M200.803 34.5801C200.681 34.5794 200.561 34.6148 200.46 34.682C200.358 34.7491 200.279 34.845 200.231 34.9573C200.184 35.0697 200.172 35.1935 200.195 35.3131C200.218 35.4327 200.277 35.5427 200.362 35.6291C200.448 35.7155 200.558 35.7745 200.677 35.7985C200.797 35.8226 200.921 35.8106 201.033 35.7641C201.146 35.7177 201.242 35.6388 201.31 35.5376C201.378 35.4363 201.414 35.3172 201.414 35.1954C201.413 35.0331 201.349 34.8777 201.234 34.7626C201.12 34.6476 200.965 34.582 200.803 34.5801Z" fill="white"/>
<path d="M199.363 36.004C199.241 36.0025 199.121 36.0374 199.019 36.1043C198.916 36.1712 198.836 36.267 198.789 36.3795C198.741 36.492 198.728 36.6161 198.751 36.736C198.775 36.856 198.833 36.9663 198.919 37.0529C199.005 37.1396 199.115 37.1986 199.235 37.2225C199.355 37.2465 199.479 37.2342 199.592 37.1873C199.705 37.1404 199.801 37.0609 199.868 36.9591C199.936 36.8573 199.971 36.7377 199.971 36.6155C199.97 36.4543 199.906 36.2998 199.792 36.1854C199.678 36.071 199.524 36.0059 199.363 36.004Z" fill="white"/>
<path d="M200.803 36.0039C200.681 36.0032 200.561 36.0387 200.459 36.1061C200.358 36.1734 200.278 36.2695 200.231 36.382C200.184 36.4946 200.172 36.6186 200.195 36.7383C200.219 36.858 200.278 36.968 200.364 37.0542C200.45 37.1405 200.56 37.1992 200.68 37.2228C200.799 37.2464 200.923 37.2339 201.036 37.1869C201.149 37.1399 201.245 37.0605 201.312 36.9587C201.379 36.857 201.415 36.7375 201.414 36.6155C201.413 36.4536 201.348 36.2986 201.234 36.1841C201.119 36.0696 200.964 36.0049 200.803 36.0039Z" fill="white"/>
<path d="M199.363 37.4257C199.278 37.4191 199.193 37.4301 199.113 37.458C199.033 37.4858 198.96 37.5299 198.898 37.5875C198.835 37.6451 198.786 37.715 198.752 37.7927C198.718 37.8704 198.7 37.9543 198.7 38.0391C198.7 38.1239 198.718 38.2078 198.752 38.2855C198.786 38.3632 198.835 38.4331 198.898 38.4907C198.96 38.5483 199.033 38.5924 199.113 38.6202C199.193 38.6481 199.278 38.6591 199.363 38.6525C199.518 38.6405 199.662 38.5707 199.767 38.457C199.872 38.3433 199.931 38.194 199.931 38.0391C199.931 37.8841 199.872 37.7349 199.767 37.6212C199.662 37.5075 199.518 37.4377 199.363 37.4257Z" fill="white"/>
<path d="M200.803 37.4258C200.681 37.4251 200.561 37.4606 200.459 37.5279C200.358 37.5953 200.278 37.6913 200.231 37.8039C200.184 37.9165 200.172 38.0405 200.195 38.1602C200.219 38.2799 200.278 38.3898 200.364 38.4761C200.45 38.5624 200.56 38.6211 200.68 38.6447C200.799 38.6683 200.923 38.6558 201.036 38.6088C201.149 38.5618 201.245 38.4823 201.312 38.3806C201.379 38.2788 201.415 38.1594 201.414 38.0374C201.413 37.8755 201.348 37.7205 201.234 37.606C201.119 37.4915 200.964 37.4268 200.803 37.4258Z" fill="white"/>
</g>
<defs>
<clipPath id="clip0_3164_25104">
<rect width="205.497" height="40" fill="white"/>
</clipPath>
</defs>
</svg>
