<svg width="36" height="36" viewBox="0 0 36 36" fill="none" xmlns="http://www.w3.org/2000/svg">
<path d="M29.295 12L21 3.705C20.7892 3.49396 20.5033 3.37526 20.205 3.375H16.5C15.406 3.375 14.3568 3.8096 13.5832 4.58318C12.8096 5.35677 12.375 6.40598 12.375 7.5V9.375H10.5C9.40598 9.375 8.35677 9.8096 7.58318 10.5832C6.8096 11.3568 6.375 12.406 6.375 13.5V28.5C6.375 29.594 6.8096 30.6432 7.58318 31.4168C8.35677 32.1904 9.40598 32.625 10.5 32.625H21C22.094 32.625 23.1432 32.1904 23.9168 31.4168C24.6904 30.6432 25.125 29.594 25.125 28.5V26.625H25.5C26.594 26.625 27.6432 26.1904 28.4168 25.4168C29.1904 24.6432 29.625 23.594 29.625 22.5V12.75C29.6132 12.4674 29.4954 12.1996 29.295 12ZM21.375 7.215L25.785 11.625H21.375V7.215ZM22.875 28.5C22.875 28.9973 22.6775 29.4742 22.3258 29.8258C21.9742 30.1775 21.4973 30.375 21 30.375H10.5C10.0027 30.375 9.5258 30.1775 9.17417 29.8258C8.82254 29.4742 8.625 28.9973 8.625 28.5V13.5C8.625 13.0027 8.82254 12.5258 9.17417 12.1742C9.5258 11.8225 10.0027 11.625 10.5 11.625H12.375V22.5C12.375 23.594 12.8096 24.6432 13.5832 25.4168C14.3568 26.1904 15.406 26.625 16.5 26.625H22.875V28.5ZM25.5 24.375H16.5C16.0027 24.375 15.5258 24.1775 15.1742 23.8258C14.8225 23.4742 14.625 22.9973 14.625 22.5V7.5C14.625 7.00272 14.8225 6.52581 15.1742 6.17417C15.5258 5.82254 16.0027 5.625 16.5 5.625H19.125V12.75C19.1289 13.0472 19.2487 13.3311 19.4588 13.5412C19.6689 13.7513 19.9528 13.8711 20.25 13.875H27.375V22.5C27.375 22.9973 27.1775 23.4742 26.8258 23.8258C26.4742 24.1775 25.9973 24.375 25.5 24.375Z" fill="#034EA1"/>
</svg>
