<svg width="187" height="187" viewBox="0 0 187 187" fill="none" xmlns="http://www.w3.org/2000/svg">
<path d="M93.501 0.583984C111.878 0.583984 129.843 6.03345 145.123 16.2433C160.403 26.4531 172.312 40.9647 179.345 57.943C186.377 74.9213 188.218 93.6037 184.632 111.628C181.047 129.652 172.198 146.208 159.203 159.203C146.208 172.197 129.652 181.047 111.628 184.632C93.6041 188.217 74.9217 186.377 57.9434 179.344C40.965 172.312 26.4534 160.402 16.2436 145.122C6.03382 129.842 0.584351 111.878 0.584351 93.5007C0.515251 68.9282 10.2098 45.3346 27.5355 27.9096C44.8611 10.4846 68.3989 0.655348 92.9714 0.583984L93.501 0.583984Z" fill="#F7F9FA"/>
<path d="M93.5016 19.168C108.203 19.168 122.575 23.5275 134.799 31.6954C147.023 39.8632 156.551 51.4725 162.177 65.0552C167.803 78.6378 169.275 93.5838 166.407 108.003C163.538 122.422 156.459 135.667 146.063 146.063C135.668 156.459 122.423 163.538 108.003 166.406C93.5841 169.275 78.6381 167.802 65.0555 162.176C51.4728 156.55 39.8636 147.023 31.6957 134.799C23.5279 122.575 19.1683 108.203 19.1683 93.5013C19.1402 83.7678 21.0295 74.124 24.7284 65.1206C28.4274 56.1173 33.8634 47.9306 40.7262 41.0281C47.589 34.1256 55.7442 28.6425 64.7261 24.8917C73.7079 21.1409 83.3407 19.196 93.0742 19.168L93.5016 19.168Z" fill="#3BB54A"/>
<path d="M141.278 71.5127L83.846 128.192L51.6875 96.6653L64.7795 83.9729L83.846 102.556L128.186 58.8203L141.278 71.5127Z" fill="white"/>
</svg>
