<svg width="21" height="21" viewBox="0 0 21 21" fill="none" xmlns="http://www.w3.org/2000/svg">
<path d="M9.625 14.875H11.375V9.625H9.625V14.875ZM10.5 7.875C10.7479 7.875 10.9559 7.791 11.1239 7.623C11.2919 7.455 11.3756 7.24733 11.375 7C11.375 6.75208 11.291 6.54413 11.123 6.37613C10.955 6.20813 10.7473 6.12442 10.5 6.125C10.2521 6.125 10.0441 6.209 9.87612 6.377C9.70812 6.545 9.62442 6.75267 9.625 7C9.625 7.24792 9.709 7.45588 9.877 7.62388C10.045 7.79188 10.2527 7.87558 10.5 7.875ZM10.5 19.25C9.28958 19.25 8.15208 19.0202 7.0875 18.5605C6.02292 18.1008 5.09688 17.4775 4.30938 16.6906C3.52188 15.9031 2.89858 14.9771 2.4395 13.9125C1.98042 12.8479 1.75058 11.7104 1.75 10.5C1.75 9.28958 1.97983 8.15208 2.4395 7.0875C2.89917 6.02292 3.52246 5.09688 4.30938 4.30938C5.09688 3.52188 6.02292 2.89858 7.0875 2.4395C8.15208 1.98042 9.28958 1.75058 10.5 1.75C11.7104 1.75 12.8479 1.97983 13.9125 2.4395C14.9771 2.89917 15.9031 3.52246 16.6906 4.30938C17.4781 5.09688 18.1017 6.02292 18.5614 7.0875C19.021 8.15208 19.2506 9.28958 19.25 10.5C19.25 11.7104 19.0202 12.8479 18.5605 13.9125C18.1008 14.9771 17.4775 15.9031 16.6906 16.6906C15.9031 17.4781 14.9771 18.1017 13.9125 18.5614C12.8479 19.021 11.7104 19.2506 10.5 19.25ZM10.5 17.5C12.4542 17.5 14.1094 16.8219 15.4656 15.4656C16.8219 14.1094 17.5 12.4542 17.5 10.5C17.5 8.54583 16.8219 6.89062 15.4656 5.53437C14.1094 4.17812 12.4542 3.5 10.5 3.5C8.54583 3.5 6.89062 4.17812 5.53437 5.53437C4.17812 6.89062 3.5 8.54583 3.5 10.5C3.5 12.4542 4.17812 14.1094 5.53437 15.4656C6.89062 16.8219 8.54583 17.5 10.5 17.5Z" fill="#939393"/>
</svg>
